<svg id="visual" viewBox="0 0 6000 9999" width="6000" height="9999" xmlns="http://www.w3.org/2000/svg" xmlns:xlink="http://www.w3.org/1999/xlink" version="1.1"><g><g transform="translate(2003 8040)"><path d="M725.8 -883.8C941.2 -684.3 1116.8 -456.1 1176.7 -195.7C1236.7 64.6 1181 357.2 1050.7 629.1C920.5 901 715.7 1152.4 439.5 1287.7C163.3 1423 -184.4 1442.3 -448.7 1311.8C-713 1181.3 -894 901 -1050 614.2C-1205.9 327.5 -1336.9 34.3 -1290.2 -226.9C-1243.5 -488.2 -1019 -717.6 -774.4 -912C-529.7 -1106.4 -264.9 -1265.8 -4.8 -1260C255.2 -1254.3 510.5 -1083.4 725.8 -883.8Z" stroke="#192a25" fill="none" stroke-width="99"></path></g><g transform="translate(3998 2149)"><path d="M686.3 -818.9C904 -635.3 1105 -432.8 1188.8 -177.1C1272.6 78.6 1239.2 387.4 1100.5 642.6C961.8 897.8 717.7 1099.5 438.7 1197.8C159.7 1296.2 -154.3 1291.2 -398.3 1169.7C-642.2 1048.1 -816.3 810 -925.7 562.5C-1035.1 315.1 -1079.8 58.4 -1041.8 -188.3C-1003.7 -435 -882.9 -671.6 -695.5 -860.6C-508.1 -1049.5 -254.1 -1190.7 -9.9 -1178.9C234.3 -1167.2 468.7 -1002.5 686.3 -818.9Z" stroke="#192a25" fill="none" stroke-width="99"></path></g><g transform="translate(3963 5447)"><path d="M741.3 -870.1C923.3 -730.8 1007.5 -461.6 1034.2 -198.8C1061 64 1030.2 320.5 918.2 544.8C806.2 769.1 613 961.2 379 1050.1C145.1 1139 -129.6 1124.8 -360.6 1025.6C-591.6 926.4 -779 742.2 -920.4 520.3C-1061.8 298.4 -1157.3 38.7 -1119.9 -201.7C-1082.6 -442.2 -912.6 -663.5 -703.8 -798.2C-495 -932.8 -247.5 -980.8 16.1 -1000C279.7 -1019.1 559.3 -1009.5 741.3 -870.1Z" stroke="#192a25" fill="none" stroke-width="99"></path></g></g></svg>