<svg id="visual" viewBox="0 0 3840 2160" width="3840" height="2160" xmlns="http://www.w3.org/2000/svg" xmlns:xlink="http://www.w3.org/1999/xlink" version="1.1"><path d="M0 1426L91.5 1472C183 1518 366 1610 548.8 1604.8C731.7 1599.7 914.3 1497.3 1097.2 1444.8C1280 1392.3 1463 1389.7 1645.8 1403.7C1828.7 1417.7 2011.3 1448.3 2194.2 1414.8C2377 1381.3 2560 1283.7 2742.8 1213.2C2925.7 1142.7 3108.3 1099.3 3291.2 1073C3474 1046.7 3657 1037.3 3748.5 1032.7L3840 1028L3840 2161L3748.5 2161C3657 2161 3474 2161 3291.2 2161C3108.3 2161 2925.7 2161 2742.8 2161C2560 2161 2377 2161 2194.2 2161C2011.3 2161 1828.7 2161 1645.8 2161C1463 2161 1280 2161 1097.2 2161C914.3 2161 731.7 2161 548.8 2161C366 2161 183 2161 91.5 2161L0 2161Z" fill="#ffffff" stroke-linecap="round" stroke-linejoin="miter"></path></svg>