<svg id="visual" viewBox="0 0 3840 2160" width="3840" height="2160" xmlns="http://www.w3.org/2000/svg" xmlns:xlink="http://www.w3.org/1999/xlink" version="1.1"><g><g transform="translate(2462 859)"><path d="M247.2 -95.6C278.2 15 232.1 135.5 142.9 201.3C53.8 267.2 -78.4 278.5 -159.3 219.6C-240.3 160.7 -270 31.6 -235 -84.7C-199.9 -201 -99.9 -304.6 4.1 -305.9C108.1 -307.2 216.2 -206.3 247.2 -95.6Z" stroke="#1b2925" fill="none" stroke-width="20"></path></g><g transform="translate(1443 1281)"><path d="M98 -31.9C112.9 13.9 101.1 68.4 65.7 95.3C30.3 122.1 -28.7 121.3 -67.2 93.2C-105.8 65 -123.9 9.4 -109.3 -36.1C-94.7 -81.6 -47.4 -117 -2.9 -116.1C41.6 -115.1 83.2 -77.8 98 -31.9Z" stroke="#1b2925" fill="none" stroke-width="20"></path></g><g transform="translate(739 602)"><path d="M238.7 -73.6C269.6 17.5 227.5 136.4 144.1 196.6C60.6 256.8 -64.2 258.5 -147.9 198.8C-231.6 139.1 -274.2 18.1 -242.7 -73.9C-211.2 -165.9 -105.6 -228.8 -0.8 -228.6C103.9 -228.3 207.8 -164.8 238.7 -73.6Z" stroke="#1b2925" fill="none" stroke-width="20"></path></g><g transform="translate(3392 1199)"><path d="M193.1 -63.3C220 19.9 190.5 120.8 116.8 178.6C43.1 236.4 -75 251 -155.5 196.6C-236.1 142.2 -279.1 18.8 -246.9 -71.7C-214.8 -162.1 -107.4 -219.6 -12.1 -215.7C83.1 -211.7 166.3 -146.4 193.1 -63.3Z" stroke="#1b2925" fill="none" stroke-width="20"></path></g><g transform="translate(577 1449)"><path d="M171.5 -59.6C191.7 6.5 156.5 86.6 100.6 123.8C44.7 160.9 -31.8 155 -85.8 116.3C-139.7 77.5 -171.1 5.9 -153 -57.3C-135 -120.4 -67.5 -175.1 4.1 -176.4C75.6 -177.7 151.3 -125.7 171.5 -59.6Z" stroke="#1b2925" fill="none" stroke-width="20"></path></g><g transform="translate(2543 1713)"><path d="M242.4 -73C272.4 13.5 226.1 130.6 139.5 193.9C52.9 257.3 -74 267 -153.6 209.6C-233.1 152.2 -265.2 27.8 -231.7 -63.6C-198.2 -155 -99.1 -213.4 3.5 -214.5C106.2 -215.7 212.4 -159.6 242.4 -73Z" stroke="#1b2925" fill="none" stroke-width="20"></path></g></g></svg>