<svg id="visual" viewBox="0 0 3840 2160" width="3840" height="2160" xmlns="http://www.w3.org/2000/svg" xmlns:xlink="http://www.w3.org/1999/xlink" version="1.1"><g><g transform="translate(2156 793)"><path d="M394.8 -128.1C444.2 23.7 370.2 215.7 236.4 309.1C102.6 402.5 -91.1 397.2 -227.5 301C-363.9 204.7 -443.1 17.5 -395.6 -131.6C-348.2 -280.8 -174.1 -391.8 -0.7 -391.6C172.7 -391.4 345.4 -279.9 394.8 -128.1Z" stroke="#1b2925" fill="none" stroke-width="58"></path></g><g transform="translate(671 1012)"><path d="M403.9 -141.1C450.7 12.9 365.8 199.8 230.8 291.8C95.8 383.8 -89.4 380.9 -222.6 288.4C-355.8 195.9 -437 13.8 -391.2 -138.7C-345.4 -291.2 -172.7 -414.1 2.9 -415.1C178.5 -416 357 -295 403.9 -141.1Z" stroke="#1b2925" fill="none" stroke-width="58"></path></g><g transform="translate(3163 1512)"><path d="M340.9 -117.4C385 25.2 325 194.9 204.7 282.5C84.5 370 -96.1 375.4 -214.9 290.3C-333.6 205.3 -390.7 29.9 -344.6 -115.3C-298.5 -260.5 -149.2 -375.6 -0.4 -375.4C148.4 -375.3 296.7 -259.9 340.9 -117.4Z" stroke="#1b2925" fill="none" stroke-width="58"></path></g></g></svg>