<svg xmlns="http://www.w3.org/2000/svg" version="1.1" xmlns:xlink="http://www.w3.org/1999/xlink" xmlns:svgjs="http://svgjs.dev/svgjs" viewBox="0 0 800 800" opacity="0.33"><defs><linearGradient x1="50%" y1="0%" x2="50%" y2="100%" id="uundulate-grad"><stop stop-color="hsl(139, 68%, 22%)" stop-opacity="1" offset="45%"></stop><stop stop-color="hsl(141, 69%, 60%)" stop-opacity="1" offset="100%"></stop></linearGradient></defs><g stroke-width="2" stroke="url(#uundulate-grad)" fill="none"><path d="M616.4108968589713 205.50922667666936C700.2855631938626 304.38086290280216 692.8093421210625 520.4652636906276 602.3017790798322 613.3035162332071C511.7942160386019 706.1417687757867 265.8492605959568 750.0044751071839 181.97459426106565 651.132838881051C98.09992792617447 552.2612026549182 109.19581763112336 231.55791489034982 199.70338067235366 138.71966234777028C290.21094371358396 45.88140980519074 532.5362305240801 106.63759045053644 616.4108968589713 205.50922667666936C700.2855631938626 304.38086290280216 692.8093421210625 520.4652636906276 602.3017790798322 613.3035162332071 "></path><path d="M606.5740406851615 214.3497399549493C686.6362221866486 308.7272108980761 679.4998293444304 514.9895934682731 593.1062464414379 603.6079254407355C506.7126635384453 692.2262574131977 271.9470242522841 734.0952043658951 191.88484275079702 639.7177334227683C111.82266124930999 545.3402624796413 122.41419233130665 239.21439688618977 208.80777523429924 150.59606491372745C295.2013581372918 61.977732941265174 526.5118591836746 119.97226901182245 606.5740406851615 214.3497399549493C686.6362221866486 308.7272108980761 679.4998293444304 514.9895934682731 593.1062464414379 603.6079254407355 "></path><path d="M596.7371692525628 223.19019219807296C672.9868659206456 313.07349785819383 666.1903013090092 509.5138622107622 583.9106985442545 593.9122736131073C501.6310957794997 678.3106850154523 278.0447726498223 718.1858725894499 201.7950759817394 628.3025669293291C125.5453793136565 538.4192612692084 135.63255177270094 246.87081784687342 217.91215453745576 162.47240644452836C300.1917573022106 78.07399504218336 520.4874725844799 133.30688653795215 596.7371692525628 223.19019219807296C672.9868659206456 313.07349785819383 666.1903013090092 509.5138622107622 583.9106985442545 593.9122736131073 "></path><path d="M586.900313078753 232.03070547635292C659.3375249134317 317.4198458534677 652.8807885323772 504.0381919884078 574.7151659058601 584.2166828206357C496.54954327934297 664.3951736528634 284.1425363061495 702.2766018481611 211.70532447147076 616.8874614710463C139.268112636792 531.4983210939315 148.85092647288423 254.52729984271332 227.0165490994013 174.34880901048552C305.18217172591835 94.17031817825779 514.4631012440742 146.64156509923816 586.900313078753 232.03070547635292C659.3375249134317 317.4198458534677 652.8807885323772 504.0381919884078 574.7151659058601 584.2166828206357 "></path><path d="M577.0634569049432 240.87118823705475C645.6881839062178 321.7661633311635 639.5712757557451 498.5624912484752 565.5196332674657 574.5210615105857C491.4679907791864 650.4796317726962 290.2402999624768 686.3673005892939 221.61557296120213 605.4723254951853C152.99084595992753 524.5773504010765 162.06930117306757 262.18375132097515 236.12094366134687 186.22518105886456C310.1725861496262 110.2666107967541 508.43872990366856 159.976213142946 577.0634569049432 240.87118823705475C645.6881839062178 321.7661633311635 639.5712757557451 498.5624912484752 565.5196332674657 574.5210615105857 "></path><path d="M567.2266312487116 249.71167099775658C632.038873416582 326.11248080885923 626.2617934966911 493.08679050854244 556.3241311466495 564.8254402005357C486.3864687966079 636.564089892529 296.33809413638215 670.4579993304269 231.5258519685117 594.0571895193243C166.71360980064122 517.6563797082216 175.287706390829 269.8402027992369 245.22536874087058 198.10155310724366C315.16303109091217 126.36290341525034 502.41438908084115 173.31086118665388 567.2266312487116 249.71167099775658C632.038873416582 326.11248080885923 626.2617934966911 493.08679050854244 556.3241311466495 564.8254402005357 "></path><path d="M557.3897750749018 258.5521537584584C618.389532409368 330.458798286555 612.952280720059 487.6110897686099 547.1285985082551 555.1298188904859C481.3049162964512 622.648548012362 302.4358577927094 654.54869807156 241.43610045824306 582.6420535434634C180.43634312377674 510.7354090153667 188.50608109101228 277.4966542774987 254.32976330281616 209.9779251556227C320.15344551462 142.45919603374665 496.3900177404355 186.64550923036177 557.3897750749018 258.5521537584584C618.389532409368 330.458798286555 612.952280720059 487.6110897686099 547.1285985082551 555.1298188904859 "></path><path d="M547.5528883835138 267.3926670367383C604.7401608845761 334.8051462818289 599.6427374258487 482.13541954625543 537.9330353522826 545.434228098014C476.2233332787165 608.7330366497729 308.5335909314585 638.639427330271 251.3463184303963 571.2269480851804C194.15904592933413 503.81446884008983 201.7244252736175 285.15313627333865 263.4341273471836 221.85432772157986C325.14382942074974 158.55551916982108 490.3656158824517 199.98018779164772 547.5528883835138 267.3926670367383C604.7401608845761 334.8051462818289 599.6427374258487 482.13541954625543 537.9330353522826 545.434228098014 "></path><path d="M537.716032209704 276.23314979744015C591.090819877362 339.15146375952475 586.3332246492166 476.65971880632264 528.7375027138883 535.7386067879643C471.1417807785599 594.8174947696057 314.6313545877858 622.730126071404 261.25656692012774 559.8118121093195C207.8817792524697 496.8934981472348 214.9427999738008 292.8095877516004 272.5385219091292 233.7306997699589C330.13424384445756 174.6518117883174 484.34124454204607 213.3148358353556 537.716032209704 276.23314979744015C591.090819877362 339.15146375952475 586.3332246492166 476.65971880632264 528.7375027138883 535.7386067879643 "></path><path d="M527.8791760358943 285.073632558142C577.4414788701481 343.49778123722047 573.0237118725845 471.1840180663901 519.5419700754939 526.0429854779143C466.0602282784032 580.9019528894386 320.729118244113 606.820824812537 271.1668154098591 548.3966761334584C221.6045125756052 489.97252745437993 228.16117467398414 300.46603922986225 281.6429164710747 245.607071818338C335.1246582681654 190.7481044068137 478.3168732016404 226.64948387906344 527.8791760358943 285.073632558142C577.4414788701481 343.49778123722047 573.0237118725845 471.1840180663901 519.5419700754939 526.0429854779143 "></path><path d="M518.0423198620845 293.9141305776329C563.7921378629343 347.84411397370536 559.7141990959524 465.70833258524647 510.34643743709944 516.3473794266534C460.9786757782466 566.9864262680605 326.82688190044024 590.911538812459 281.0770638995905 536.9815554163865C235.32724589874078 483.0515720203141 241.37954937416742 308.1225059669131 290.7473110330203 257.4834591255061C340.1150726918732 206.84441228409906 472.29250186123477 239.9841471815604 518.0423198620845 293.9141305776329C563.7921378629343 347.84411397370536 559.7141990959524 465.70833258524647 510.34643743709944 516.3473794266534 "></path><path d="M508.2054636882747 302.7545980795456C550.1427968557203 352.190416192612 546.4046863193203 460.2326165865247 501.15090479870514 506.6517428578145C455.89712327809 553.0708691291043 332.9246455567675 575.0022222948029 290.9873123893219 525.5664041817365C249.0499792218763 476.13058606867 254.59792407435071 315.77894218638585 299.8517055949659 269.3598159150961C345.105487115581 222.9406896438063 466.2681305208291 253.31877996647916 508.2054636882747 302.7545980795456C550.1427968557203 352.190416192612 546.4046863193203 460.2326165865247 501.15090479870514 506.6517428578145 "></path><path d="M498.3685769968869 311.5950960990365C536.4934253309283 356.5367489290969 533.09514302511 454.7569311053811 491.9553416427327 496.9561368065537C450.8155402603553 539.1553425077261 339.02237869551664 559.092936294725 300.89753036147516 514.1512834646646C262.7726820274337 469.2096306346042 267.81626825695594 323.4354089234367 308.95606963933335 281.2362032222642C350.09587102171076 239.03699752109168 460.24372866284534 266.6534432689761 498.3685769968869 311.5950960990365C536.4934253309283 356.5367489290969 533.09514302511 454.7569311053811 491.9553416427327 496.9561368065537 "></path><path d="M488.5317208230771 320.43560937731644C522.8440843237144 360.8830969243708 519.785630248478 449.2812608830267 482.7598090043383 487.2605460140819C445.73398776019866 525.2398311451371 345.12014235184387 543.183665553436 310.80777885120654 502.7361780063817C276.49541535056926 462.2886904593273 281.0346429571392 331.09189091927664 318.06046420127893 293.11260578822134C355.0862854454186 255.1333206571661 454.21935732243975 279.98812183026206 488.5317208230771 320.43560937731644C522.8440843237144 360.8830969243708 519.785630248478 449.2812608830267 482.7598090043383 487.2605460140819 "></path><path d="M478.6948646492673 329.27609213801827C509.1947433165004 365.2294144020666 506.4761174718459 443.805560143094 473.5642763659439 477.564924704032C440.652435260042 511.32428926497005 351.2179060081711 527.2743642945691 320.71802734093797 491.32104203052074C290.2181486737048 455.3677197664724 294.2530176573226 338.7483423975384 327.16485876322446 304.9889778366004C360.0766998691264 271.2296132756624 448.19498598203415 293.32276987396995 478.6948646492673 329.27609213801827C509.1947433165004 365.2294144020666 506.4761174718459 443.805560143094 473.5642763659439 477.564924704032 "></path><path d="M468.8580084754575 338.11657489872005C495.5454023092865 369.5757318797624 493.1666046952138 438.3298594031613 464.3687437275496 467.86930339398214C435.5708827598854 497.40874738480284 357.31566966449833 511.36506303570195 330.62827583066934 479.9059060546597C303.9408819968403 448.4467490736174 307.47139235750586 346.40479387580024 336.26925332517004 316.8653498849795C365.0671142928342 287.3259058941587 442.1706146416285 306.6574179176778 468.8580084754575 338.11657489872005C495.5454023092865 369.5757318797624 493.1666046952138 438.3298594031613 464.3687437275496 467.86930339398214 "></path><path d="M459.0211523016477 346.9570576594219C481.8960613020726 373.92204935745815 479.85709191858166 432.8541586632287 455.1732110891552 458.1736820839322C430.4893302597288 483.49320550463574 363.4134333208256 495.45576177683495 340.5385243204007 468.49077007879873C317.66361531997586 441.5257783807625 320.6897670576892 354.061245354062 345.3736478871156 328.7417219333585C370.0575287165421 303.42219851265503 436.14624330122285 319.99206596138566 459.0211523016477 346.9570576594219C481.8960613020726 373.92204935745815 479.85709191858166 432.8541586632287 455.1732110891552 458.1736820839322 "></path><path d="M449.18429612783797 355.7975556789128C468.2467202948587 378.268382093943 466.54757914194954 427.3784731820851 445.9776784507609 448.47807603267137C425.4077777595722 469.5776788832576 369.51119697715285 479.546475776757 350.4487728101321 457.07564936172685C331.3863486431114 434.60482294669663 333.9081417578725 361.7177120911129 354.4780424490612 340.6181092405266C375.0479431402499 319.51850638994034 430.1218719608172 333.32672926388256 449.18429612783797 355.7975556789128C468.2467202948587 378.268382093943 466.54757914194954 427.3784731820851 445.9776784507609 448.47807603267137 "></path><path d="M439.3474399540282 364.6380384396146C454.59737928764474 382.61469957163877 453.2380663653175 421.90277244215247 436.7821458123665 438.7824547226215C420.32622525941554 455.6621370030905 375.6089606334801 463.63717451789 360.3590212998635 445.66051338586584C345.10908196624695 427.6838522538417 347.1265164580558 369.3741635693747 363.5824370110068 352.49448128890566C380.03835756395773 335.61479900843665 424.0975006204116 346.66137730759044 439.3474399540282 364.6380384396146C454.59737928764474 382.61469957163877 453.2380663653175 421.90277244215247 436.7821458123665 438.7824547226215 "></path><path d="M429.5105837802184 373.4785364591055C440.94803828043086 386.9610323081236 439.92855358868536 416.42708696100885 427.5866131739721 429.0868486713606C415.24467275925895 441.7466103817124 381.7067242898073 447.727888517812 370.2692697895949 434.2453926687939C358.83181528938246 420.7628968197758 360.34489115823914 377.03063030642556 372.68683157295237 364.37086859607376C385.02877198766555 351.711106885722 418.07312928000596 359.99604061008733 429.5105837802184 373.4785364591055C440.94803828043086 386.9610323081236 439.92855358868536 416.42708696100885 427.5866131739721 429.0868486713606 "></path><path d="M419.67372760640865 382.3190192198073C427.29869727321693 391.3073497858194 426.6190408120533 410.95138622107623 418.39108053557777 419.3912273613107C410.1631202591023 427.83106850154525 387.8044879461346 431.818587258945 380.17951827932626 422.8302566929329C372.554548612518 413.84192612692084 373.5632658584224 384.68708178468734 381.7912261348979 376.24724064445286C390.0191864113734 367.8073995042183 412.0487579396003 373.3306886537952 419.67372760640865 382.3190192198073C427.29869727321693 391.3073497858194 426.6190408120533 410.95138622107623 418.39108053557777 419.3912273613107 "></path><path d="M409.8368561738098 391.15951723929817C413.64934100721393 395.6536825223042 413.3095127766321 405.4757007399327 409.19553263839435 409.6956213100499C405.08155250015665 413.91554188016715 393.90223634367277 415.909301258867 390.0897515102686 411.415135975861C386.2772666768645 406.92097069285495 386.7816252998167 392.3435485217382 390.8956054380544 388.12362795162096C395.0095855762922 383.9037073815037 406.02437134040565 386.6653519562921 409.8368561738098 391.15951723929817C413.64934100721393 395.6536825223042 413.3095127766321 405.4757007399327 409.19553263839435 409.6956213100499 "></path></g></svg>